<?xml version="1.0" encoding="UTF-8" standalone="no"?>
<!-- Created with Inkscape (http://www.inkscape.org/) -->

<svg
   xmlns:dc="http://purl.org/dc/elements/1.1/"
   xmlns:cc="http://creativecommons.org/ns#"
   xmlns:rdf="http://www.w3.org/1999/02/22-rdf-syntax-ns#"
   xmlns:svg="http://www.w3.org/2000/svg"
   xmlns="http://www.w3.org/2000/svg"
   xmlns:sodipodi="http://sodipodi.sourceforge.net/DTD/sodipodi-0.dtd"
   xmlns:inkscape="http://www.inkscape.org/namespaces/inkscape"
   width="240"
   height="120"
   viewBox="0 0 240 120"
   id="svg2"
   version="1.1"
   inkscape:version="0.91 r13725"
   sodipodi:docname="drawing.svg">
  <defs
     id="defs4" />
  <sodipodi:namedview
     id="base"
     pagecolor="#ffffff"
     bordercolor="#666666"
     borderopacity="1.0"
     inkscape:pageopacity="0.0"
     inkscape:pageshadow="2"
     inkscape:zoom="3.55"
     inkscape:cx="120"
     inkscape:cy="60"
     inkscape:document-units="px"
     inkscape:current-layer="g4223"
     showgrid="false"
     units="px"
     inkscape:window-width="1280"
     inkscape:window-height="700"
     inkscape:window-x="0"
     inkscape:window-y="0"
     inkscape:window-maximized="1" />
  <metadata
     id="metadata7">
    <rdf:RDF>
      <cc:Work
         rdf:about="">
        <dc:format>image/svg+xml</dc:format>
        <dc:type
           rdf:resource="http://purl.org/dc/dcmitype/StillImage" />
        <dc:title></dc:title>
      </cc:Work>
    </rdf:RDF>
  </metadata>
  <g
     inkscape:label="Layer 1"
     inkscape:groupmode="layer"
     id="layer1"
     transform="translate(0,-932.36216)">
    <g
       id="g4223"
       transform="matrix(1.1838221,0,0,1.1838221,-21.096198,-183.4382)">
      <path
         sodipodi:nodetypes="czsc"
         inkscape:connector-curvature="0"
         id="path4167"
         d="m 75.699413,967.23575 c 0,0 4.290471,-10.73918 13.032981,-14.5919 8.74251,-3.85272 22.077186,-4.74625 29.295776,-1.12676 12.02777,6.03088 14.58928,18.70119 14.58928,18.70119"
         style="opacity:1;fill:none;fill-rule:evenodd;stroke:#000000;stroke-width:4;stroke-linecap:round;stroke-linejoin:round;stroke-miterlimit:4;stroke-dasharray:none;stroke-opacity:1" />
      <path
         sodipodi:nodetypes="czczczzc"
         inkscape:connector-curvature="0"
         id="path4169"
         d="m 85.633803,971.37625 c 0,0 -3.687519,-2.20948 -6.338028,-2.95775 -2.650509,-0.74827 -8.028169,-0.14085 -8.028169,-0.14085 0,0 -0.787141,4.85175 -0.281691,6.90141 0.50545,2.04966 2.253522,5.21127 2.253522,5.21127 0,0 0.414901,11.73461 2.676056,16.05634 2.261156,4.32173 8.169146,7.60053 12.957747,9.29573 4.7886,1.6952 13.38028,0.8451 13.38028,0.8451"
         style="opacity:1;fill:none;fill-rule:evenodd;stroke:#000000;stroke-width:4;stroke-linecap:round;stroke-linejoin:round;stroke-miterlimit:4;stroke-dasharray:none;stroke-opacity:1" />
      <path
         sodipodi:nodetypes="czzzc"
         inkscape:connector-curvature="0"
         id="path4171"
         d="m 76.338028,997.29174 c 0,0 -3.494896,1.41454 -4.366197,2.95776 -0.871301,1.5432 -1.278301,3.3779 -0.281691,5.0704 0.996611,1.6924 4.295463,2.7895 7.843585,2.8703 3.548122,0.081 9.489983,-2.013 9.489983,-2.013"
         style="opacity:1;fill:none;fill-rule:evenodd;stroke:#000000;stroke-width:4;stroke-linecap:round;stroke-linejoin:round;stroke-miterlimit:4;stroke-dasharray:none;stroke-opacity:1" />
      <path
         sodipodi:nodetypes="sszzzzzss"
         inkscape:connector-curvature="0"
         id="path4173"
         d="m 131.97183,975.17907 -0.56338,3.23943 c -0.28599,1.64447 -2.02619,2.82909 -1.97184,4.22535 0.0544,1.39625 0.44987,2.79854 1.83099,3.23944 1.38113,0.44089 3.27473,-0.984 4.50704,-2.11268 1.23232,-1.12869 2.05131,-2.7492 2.53521,-4.36619 0.48391,-1.617 0.76504,-3.47402 0.28169,-5.07042 -0.48334,-1.59641 -1.91988,-3.24284 -3.52112,-3.66198 -2.75479,-0.72109 -2.80292,2.80696 -3.09859,4.50705 z"
         style="opacity:1;fill:#a20000;fill-rule:evenodd;stroke:#000000;stroke-width:4;stroke-linecap:round;stroke-linejoin:round;stroke-miterlimit:4;stroke-dasharray:none;stroke-opacity:1;fill-opacity:1" />
      <path
         sodipodi:nodetypes="czzzzzzc"
         inkscape:connector-curvature="0"
         id="path4175"
         d="m 129.43662,985.46075 c 0,0 -0.11944,1.8386 -3.52113,4.08451 -3.40169,2.24591 -14.61612,3.1002 -18.16901,5.77465 -3.55289,2.67445 -3.88933,3.82889 -4.22535,6.33799 -0.33602,2.5091 0.0429,5.1227 2.39436,7.1831 2.3515,2.0604 7.43876,2.2762 10.98592,2.1127 3.54716,-0.1635 6.83824,-0.5503 10.43216,-2.46 3.59392,-1.9097 10.27206,-9.51182 10.27206,-9.51182"
         style="opacity:1;fill:none;fill-rule:evenodd;stroke:#000000;stroke-width:4;stroke-linecap:round;stroke-linejoin:round;stroke-miterlimit:4;stroke-dasharray:none;stroke-opacity:1" />
      <path
         sodipodi:nodetypes="czzszzzc"
         inkscape:connector-curvature="0"
         id="path4177"
         d="m 125.41773,1009.589 c 0,0 13.63339,1.661 18.80762,1.6464 5.17423,-0.015 8.50559,-0.05 11.97183,-1.4084 3.46624,-1.3582 9.32248,-4.1658 7.74648,-6.9015 -1.52778,-2.652 -8.66474,-1.601 -6.05633,-3.09856 2.60841,-1.49753 0.71332,-10.22348 -0.84507,-14.64788 -1.55839,-4.4244 -5.92302,-8.67583 -9.00184,-10.56338 -3.07882,-1.88755 -9.00184,-1.78725 -9.00184,-1.78725"
         style="opacity:1;fill:none;fill-rule:evenodd;stroke:#000000;stroke-width:4;stroke-linecap:round;stroke-linejoin:round;stroke-miterlimit:4;stroke-dasharray:none;stroke-opacity:1" />
      <path
         sodipodi:nodetypes="czc"
         inkscape:connector-curvature="0"
         id="path4179"
         d="m 97.605634,973.91146 c 0,0 10.717856,-9.45708 15.492956,-7.60564 4.7751,1.85144 4.92958,12.53521 4.92958,12.53521"
         style="opacity:1;fill:none;fill-rule:evenodd;stroke:#000000;stroke-width:4;stroke-linecap:round;stroke-linejoin:round;stroke-miterlimit:4;stroke-dasharray:none;stroke-opacity:1" />
    </g>
    <text
       xml:space="preserve"
       style="font-style:normal;font-weight:normal;font-size:40px;line-height:125%;font-family:sans-serif;letter-spacing:0px;word-spacing:0px;fill:#000000;fill-opacity:1;stroke:none;stroke-width:1px;stroke-linecap:butt;stroke-linejoin:miter;stroke-opacity:1"
       x="46.822632"
       y="1032.3069"
       id="text4219"
       sodipodi:linespacing="125%"><tspan
         sodipodi:role="line"
         id="tspan4221"
         x="46.822632"
         y="1032.3069"
         style="font-style:normal;font-variant:normal;font-weight:bold;font-stretch:normal;font-size:16.25px;font-family:'Source Han Sans';-inkscape-font-specification:'Source Han Sans Bold'">膝行而前，莫敢仰视</tspan></text>
    <text
       xml:space="preserve"
       style="font-style:normal;font-weight:normal;font-size:40px;line-height:125%;font-family:sans-serif;letter-spacing:0px;word-spacing:0px;fill:#000000;fill-opacity:1;stroke:none;stroke-width:1px;stroke-linecap:butt;stroke-linejoin:miter;stroke-opacity:1"
       x="81.971832"
       y="1048.7002"
       id="text4232"
       sodipodi:linespacing="125%"><tspan
         sodipodi:role="line"
         id="tspan4234"
         x="81.971832"
         y="1048.7002"
         style="font-style:normal;font-variant:normal;font-weight:300;font-stretch:normal;font-size:13.75px;font-family:'Source Han Sans';-inkscape-font-specification:'Source Han Sans Light'">高清重置版</tspan></text>
  </g>
</svg>
